<svg xmlns="http://www.w3.org/2000/svg" viewBox="0 0 194.4 262.73"><defs><style>.cls-1{opacity:0.85;}.cls-2{fill:#fbfdfd;}</style></defs><g id="Capa_2" data-name="Capa 2"><g id="Capa_1-2" data-name="Capa 1"><g class="cls-1"><path class="cls-2" d="M116,117.4a25,25,0,0,1-8.54,7.11,27.54,27.54,0,0,1-11.07,2.93,28.33,28.33,0,0,1-11.49-1.89,28.54,28.54,0,0,1-16.26-16.26A28,28,0,0,1,66.76,97.8a27.33,27.33,0,0,1,2.92-11.07,24.88,24.88,0,0,1,7.12-8.54A30,30,0,0,0,70.6,97.8a27.19,27.19,0,0,0,25.8,25.8A29.87,29.87,0,0,0,116,117.4Z"/><path class="cls-2" d="M139.79,151.56a18.13,18.13,0,0,0-5.13-17.39,17.35,17.35,0,0,0-17.06-3.89,6.36,6.36,0,0,0-1.06.38l-1.05.43a17.89,17.89,0,0,0-2,1.1,16.8,16.8,0,0,0-3.41,2.88,16.52,16.52,0,0,0-4,7.83,16.6,16.6,0,0,0,.53,8.65,16.3,16.3,0,0,0,4.78,7.13l-.2-.15a56.77,56.77,0,0,1,19.34,21.68,55.37,55.37,0,0,1,6,28.52,57.78,57.78,0,0,1-2.56,14.5,54,54,0,0,1-2.74,6.85c-.55,1.1-1,2.24-1.65,3.31l-1.92,3.15c-.34.52-.62,1.07-1,1.55l-1.11,1.48c-.75,1-1.45,2-2.25,2.92a59.69,59.69,0,0,1-5.13,5.3A53.49,53.49,0,0,1,99.5,259.21c-1.16.4-2.3.86-3.48,1.2l-3.57.89c-.6.14-1.18.31-1.79.41l-1.82.27-3.64.52-3.66.15-1.84.08c-.61,0-1.22-.06-1.83-.09a56.14,56.14,0,0,1-38.79-17.71l-2.38-2.72a32,32,0,0,1-2.17-2.89l-1-1.48a11.47,11.47,0,0,1-1-1.51l-1.79-3.13A31,31,0,0,1,29.16,230l-.74-1.64a12.08,12.08,0,0,1-.66-1.67,53.29,53.29,0,0,1-2-6.86,55.56,55.56,0,0,1-1.36-14.12,57.11,57.11,0,0,0,8,26.59l1.89,2.92a11.67,11.67,0,0,0,1,1.41L36.34,238a56.3,56.3,0,0,0,4.6,5.16,54,54,0,0,0,63.15,9.08,54.27,54.27,0,0,0,11-7.9,55.29,55.29,0,0,0,4.68-4.88c.73-.86,1.36-1.8,2-2.7l1-1.35c.35-.45.6-1,.91-1.43l1.74-2.9c.55-1,1-2,1.49-3a23.57,23.57,0,0,0,1.34-3.1l1.18-3.17a52.45,52.45,0,0,0,2.41-13.26,48.74,48.74,0,0,0-.91-13.47,53.31,53.31,0,0,0-21.81-33.29l-.13-.09-.06-.06a20.12,20.12,0,0,1-5.62-8.93,19.67,19.67,0,0,1-.3-10.46,21.64,21.64,0,0,1,1.92-4.88,20.65,20.65,0,0,1,3.13-4.18,19.69,19.69,0,0,1,4.1-3.18,22.74,22.74,0,0,1,2.31-1.17c.4-.16.81-.3,1.22-.44a7.6,7.6,0,0,1,1.23-.38,19.15,19.15,0,0,1,18.71,5.25,18.74,18.74,0,0,1,4.62,8.7A18.4,18.4,0,0,1,139.79,151.56Z"/><path class="cls-2" d="M60.54,207.1a20,20,0,0,0-5.61-12.89,17.45,17.45,0,0,0-24.06-.81,20,20,0,0,0-6.5,12.46,16,16,0,0,1,0-7.86,18,18,0,0,1,3.77-7.29,19.14,19.14,0,0,1,23.35-4.44,18.78,18.78,0,0,1,6.4,5.46,17.92,17.92,0,0,1,3.25,7.53A15.93,15.93,0,0,1,60.54,207.1Z"/><path class="cls-2" d="M139.36,27.42a34.26,34.26,0,0,0-18.8-20.37A32.37,32.37,0,0,0,107.1,4.64,31.52,31.52,0,0,0,77.58,29a32.89,32.89,0,0,0-.25,13.94A35.09,35.09,0,0,0,83,56.13a30.38,30.38,0,0,1-8-12.62A33.09,33.09,0,0,1,73.5,36a36.58,36.58,0,0,1,.33-7.75A33.65,33.65,0,0,1,91.76,3.68,34.33,34.33,0,0,1,107,0a16.15,16.15,0,0,1,2,.06c.66,0,1.31.08,2,.14a36.51,36.51,0,0,1,3.87.7,32.78,32.78,0,0,1,7.34,2.69,35.08,35.08,0,0,1,3.35,2c.54.37,1.09.7,1.6,1.1l1.5,1.23a33.1,33.1,0,0,1,5.2,5.65A30.57,30.57,0,0,1,139.36,27.42Z"/><path class="cls-2" d="M159.36,85.61A34.82,34.82,0,0,0,173.75,81a32.7,32.7,0,0,0,10.64-10.08,31.78,31.78,0,0,0,5-13.47,31,31,0,0,0-1.47-14.16l-.6-1.69c-.22-.55-.51-1.08-.75-1.62a26.6,26.6,0,0,0-1.73-3.14,13.36,13.36,0,0,0-1-1.49l-1.06-1.45-1.19-1.35a11.8,11.8,0,0,0-1.24-1.31,31.88,31.88,0,0,0-12.21-7.56,28.68,28.68,0,0,0-3.53-.94l-1.8-.36L161,22.16a28.37,28.37,0,0,0-7.42.08,34.37,34.37,0,0,0-14.2,5.18,30.49,30.49,0,0,1,13.76-7.54,33.48,33.48,0,0,1,16.1.11,19.38,19.38,0,0,1,2,.59c.65.22,1.31.42,1.95.66l1.88.85a15.1,15.1,0,0,1,1.84.93l1.79,1c.61.34,1.13.79,1.7,1.18s1.14.78,1.66,1.25l1.55,1.37A33.92,33.92,0,0,1,194,58.09a33.33,33.33,0,0,1-6.49,15,32.83,32.83,0,0,1-12.64,10A30.58,30.58,0,0,1,159.36,85.61Z"/><path class="cls-2" d="M130.5,114.76a34.32,34.32,0,0,0,22,15,32.68,32.68,0,0,0,13.11-.25A31.39,31.39,0,0,0,177.39,124a32,32,0,0,0,8.64-9.69,32.59,32.59,0,0,0,4-12.48,33.89,33.89,0,0,0-7.91-25.39A30.36,30.36,0,0,1,191,87.69a31.38,31.38,0,0,1,2.86,14.4,32.92,32.92,0,0,1-3.72,14.45,34.2,34.2,0,0,1-9.79,11.4A33.77,33.77,0,0,1,166.56,134a33.2,33.2,0,0,1-14.91-.58,32.11,32.11,0,0,1-12.93-6.95A30.5,30.5,0,0,1,130.5,114.76Z"/><path class="cls-2" d="M72.93,63.79c2-2.46,3.93-4.72,5.65-7.06a65.75,65.75,0,0,0,8.29-14.9c1.09-2.69,2-5.49,3-8.52a21.14,21.14,0,0,1,.69,9.49,26.94,26.94,0,0,1-9.25,16.57A21,21,0,0,1,72.93,63.79Z"/><path class="cls-2" d="M136.23,108.12a15.56,15.56,0,0,1-1.4,3.95,20.16,20.16,0,0,1-4.42,5.74,14.9,14.9,0,0,1-3.47,2.36,8.52,8.52,0,0,1,.19-4.37,11.06,11.06,0,0,1,1.88-3.64,11.22,11.22,0,0,1,3-2.74A8.59,8.59,0,0,1,136.23,108.12Z"/><path class="cls-2" d="M126.88,118a50.21,50.21,0,0,0-6.17-19,68.61,68.61,0,0,0-12-15.57A84.82,84.82,0,0,0,93,71.31a72.2,72.2,0,0,0-18.51-8c7-.24,13.93,1.67,20.3,4.6a62.39,62.39,0,0,1,17.32,12,54.54,54.54,0,0,1,12.06,17.39C126.91,103.86,128.17,111.16,126.88,118Z"/><path class="cls-2" d="M62.91,129.16a16.62,16.62,0,0,0-5.13,11.51,14.46,14.46,0,0,0,14.88,14.82,16.85,16.85,0,0,0,11.5-5.17,14.45,14.45,0,0,1-11.07,9,16.24,16.24,0,0,1-7.76-.47A16.46,16.46,0,0,1,54,140.26a15.13,15.13,0,0,1,3.11-6.88A13.4,13.4,0,0,1,62.91,129.16Z"/><path class="cls-2" d="M15.88,109.91a22.91,22.91,0,0,0,12.71,13.47,20.49,20.49,0,0,0,27.8-14.63,22.59,22.59,0,0,0-3.86-18.09,19.61,19.61,0,0,1,6.21,8.16A21.92,21.92,0,0,1,60.12,104a16.15,16.15,0,0,1,.19,2.69V108c0,.45-.08.9-.13,1.35a22.69,22.69,0,0,1-12,17.52,23.25,23.25,0,0,1-10.69,2.61c-.92,0-1.84-.1-2.76-.16a22.6,22.6,0,0,1-2.7-.53,21.59,21.59,0,0,1-12.94-9.16A19.66,19.66,0,0,1,15.88,109.91Z"/><path class="cls-2" d="M33,137.6c3-.61,5.82-1.07,8.56-1.69a73.77,73.77,0,0,0,7.95-2.16,82.42,82.42,0,0,0,7.7-3c2.57-1.12,5.12-2.38,7.91-3.68a20.81,20.81,0,0,1-5.92,7,27.19,27.19,0,0,1-17.31,5.66A21.17,21.17,0,0,1,33,137.6Z"/><path class="cls-2" d="M123.47,88.06a68.18,68.18,0,0,0,9.65-6A49.51,49.51,0,0,0,141,74.67a48.72,48.72,0,0,0,6-9,69.55,69.55,0,0,0,4.34-10.49,25,25,0,0,1-.77,11.93,30.41,30.41,0,0,1-15.48,18.22A25.08,25.08,0,0,1,123.47,88.06Z"/><path class="cls-2" d="M151.15,55.29A54.65,54.65,0,0,0,137.85,59,42.43,42.43,0,0,0,126.69,66a42.88,42.88,0,0,0-8.45,10.14,51.72,51.72,0,0,0-5.38,12.71,27.63,27.63,0,0,1,1.93-14.42,32.69,32.69,0,0,1,21.83-19.11A28.51,28.51,0,0,1,151.15,55.29Z"/><path class="cls-2" d="M141.19,65.36c-3,1.68-5.85,3.24-8.48,5A59.62,59.62,0,0,0,119,83c-2,2.47-3.78,5.14-5.69,8A22.46,22.46,0,0,1,115.74,81,28.64,28.64,0,0,1,131,67,23,23,0,0,1,141.19,65.36Z"/><path class="cls-2" d="M74,81.5A19.88,19.88,0,0,1,70,78.85a30.16,30.16,0,0,1-3.23-3.16l3.59-2.9.14.14-3.7,2.79a8.23,8.23,0,0,1-1.57-4.66,8,8,0,0,1,1.32-4.69,7.23,7.23,0,0,1,3.62-2.91,5.67,5.67,0,0,1,4.27.06,9.79,9.79,0,0,0-2.74,2.31,7.28,7.28,0,0,0-1.34,2.52,6.7,6.7,0,0,0,.36,4.87L67.05,76l-.11-.16L70.52,73a30.37,30.37,0,0,1,2.08,4A20,20,0,0,1,74,81.5Z"/><path class="cls-2" d="M50.11,89a10,10,0,0,1,3.5,2.31,7.47,7.47,0,0,1,1.83,4,9.73,9.73,0,0,1-.58,4.42,16.74,16.74,0,0,1-2.07,3.89,28.55,28.55,0,0,1-6.11,6.11A34.91,34.91,0,0,1,39.17,114a36.27,36.27,0,0,1-8.35,2.44,26.37,26.37,0,0,1-9,.1A14.63,14.63,0,0,1,17.24,115a7.28,7.28,0,0,1-1.16-.77l-.56-.46-.51-.57a6.51,6.51,0,0,1-1.46-2.79,8.19,8.19,0,0,1,.88-5.67,15.12,15.12,0,0,1,3-3.86,22.64,22.64,0,0,1,3.67-2.79,25.06,25.06,0,0,1,4.09-2,24.53,24.53,0,0,1,9-1.65,13.52,13.52,0,0,1,4.84.93A7,7,0,0,1,41.53,97a5,5,0,0,1,1.35,3.29,5.85,5.85,0,0,1-.79,3,9.51,9.51,0,0,1-1.59,2.09,15.05,15.05,0,0,1-3.88,2.74,17.23,17.23,0,0,1-4.38,1.46,12.81,12.81,0,0,1-4.71.09,7.22,7.22,0,0,1-2.49-.92,3.73,3.73,0,0,1-1.2-1.18,3.1,3.1,0,0,1-.48-1.76,4.32,4.32,0,0,1,1.14-2.69,8.22,8.22,0,0,1,1.85-1.57,10.46,10.46,0,0,1,4.31-1.51,8.14,8.14,0,0,1,2.31,0,3.54,3.54,0,0,1,2.29,1.17,1.81,1.81,0,0,1,.29,1.51,2.64,2.64,0,0,1-.63,1.13,5.32,5.32,0,0,1-1.83,1.29,6.46,6.46,0,0,1-2.1.51,3.52,3.52,0,0,1-2-.39,3.49,3.49,0,0,0,2,0,5.81,5.81,0,0,0,1.8-.79,4.37,4.37,0,0,0,1.35-1.28,1.53,1.53,0,0,0,.28-.7.5.5,0,0,0-.17-.44,2.52,2.52,0,0,0-1.41-.39A6.57,6.57,0,0,0,31,102a8.25,8.25,0,0,0-3.26,1.61,5.84,5.84,0,0,0-1.18,1.21,1.65,1.65,0,0,0-.38,1.06.25.25,0,0,0,.1.18,1,1,0,0,0,.31.2,4.43,4.43,0,0,0,1.41.33,12.4,12.4,0,0,0,6.83-1.75,10.8,10.8,0,0,0,2.7-2.19,5.81,5.81,0,0,0,.84-1.22,1.62,1.62,0,0,0,.21-.92.58.58,0,0,0-.23-.4,3,3,0,0,0-1-.52,9.13,9.13,0,0,0-3.24-.47,21.17,21.17,0,0,0-10.43,3.17,17.58,17.58,0,0,0-2.88,2.21A10.45,10.45,0,0,0,18.73,107a3.59,3.59,0,0,0-.49,2.28,2.57,2.57,0,0,0,1.37,1.61A10.59,10.59,0,0,0,22.74,112a23.26,23.26,0,0,0,7.47.19,37.74,37.74,0,0,0,7.59-1.73,35,35,0,0,0,7.07-3.37,26.85,26.85,0,0,0,6.05-5,11,11,0,0,0,3.17-6.76A6.48,6.48,0,0,0,53,91.81,10.31,10.31,0,0,0,50.11,89Z"/><path class="cls-2" d="M37.19,87.67A63.56,63.56,0,0,0,37,79a23.91,23.91,0,0,0-2.12-7.85A12.72,12.72,0,0,0,30,65.71c-.12-.07-.24-.16-.38-.23l-.41-.19-.81-.38c-.58-.19-1.14-.39-1.74-.53l-.9-.17-.46-.09-.47,0C24.15,64,23.46,64,23,64a4.63,4.63,0,0,0-2.67.92,5.57,5.57,0,0,0-1.86,2.37,5.38,5.38,0,0,0-.41,3,3.55,3.55,0,0,0,1.37,2.31,5.18,5.18,0,0,0,1.41.71,3.78,3.78,0,0,0,1.46.21,3.37,3.37,0,0,0,2.53-1.58,3.9,3.9,0,0,0,.55-3.36,2.77,2.77,0,0,0-1.16-1.41,5.14,5.14,0,0,0-2-.66,4.91,4.91,0,0,1,2.29,0,3.78,3.78,0,0,1,2.05,1.43A5.54,5.54,0,0,1,27,73a6,6,0,0,1-4.06,3.68,6.5,6.5,0,0,1-2.87.1,8.08,8.08,0,0,1-2.64-.89,7.28,7.28,0,0,1-2.25-1.93,7.56,7.56,0,0,1-1.31-2.67,9.39,9.39,0,0,1,.27-5.61,10.07,10.07,0,0,1,3.27-4.57,9.5,9.5,0,0,1,5.42-2,22.06,22.06,0,0,1,2.55.16l.61.05.62.13,1.24.27a23.56,23.56,0,0,1,2.4.84l1.15.59a6.79,6.79,0,0,1,1.09.67,15.59,15.59,0,0,1,6,7.91,22.72,22.72,0,0,1,1,9.27A32.87,32.87,0,0,1,37.19,87.67Z"/><path class="cls-2" d="M31.53,88.76a22.5,22.5,0,0,1-8.7,1,28.31,28.31,0,0,1-8.75-2,23.56,23.56,0,0,1-7.74-5.13,21,21,0,0,1-2.91-3.82,20.52,20.52,0,0,1-1.91-4.44,22.66,22.66,0,0,1-.77-4.73A25.06,25.06,0,0,1,1,65l.18-1.15.2-1,.41-2.08c.25-1.38.54-2.76.79-4.14a51.15,51.15,0,0,0,1-8.14,6,6,0,0,0-.88-3.59C2,43.76.89,42.77,0,41.64a24.18,24.18,0,0,1,3.76,2.3,5.85,5.85,0,0,1,.84.88,8.66,8.66,0,0,1,.64,1A10.27,10.27,0,0,1,6,48.13,36.14,36.14,0,0,1,6.4,57c-.07,1.45-.21,2.88-.34,4.32l-.24,2.14L5.7,64.55l-.09,1A20.49,20.49,0,0,0,6.22,73,17.09,17.09,0,0,0,9.74,79.5a23.22,23.22,0,0,0,6,4.83,33,33,0,0,0,7.48,3.11A33.32,33.32,0,0,0,31.53,88.76Z"/><path class="cls-2" d="M89,137.43c-1.37,6.33-3.22,12.48-5.18,18.58s-4.16,12.12-6.48,18.09S72.56,186,69.9,191.8,64.42,203.4,61.14,209c1.37-6.34,3.22-12.49,5.18-18.59s4.16-12.12,6.48-18.08,4.81-11.86,7.47-17.7S85.75,143,89,137.43Z"/></g></g></g></svg>