<svg xmlns="http://www.w3.org/2000/svg" viewBox="0 0 1927.6 730.88" preserveAspectRatio="none"><defs><style>.cls-1{fill:#176f87;}</style></defs><g id="Capa_2" data-name="Capa 2"><g id="Capa_2-2" data-name="Capa 2"><path class="cls-1" d="M1927.6,659.8l-1.3,62.9c-35.1,4-70.6,5.4-105.6,1-48-6.1-92.1-22.9-140.3-28-100.6-10.6-195.7,31.2-297.1,34.9-74.2,2.7-146.9-15.2-221.1-19.6-131.5-7.7-263.8,27.3-393.3,9.4-63.3-8.7-121.5-29.6-183.8-41.1-99.6-18.4-204.5-12.2-307.4-12-25.4.1-51.1-.4-76.7-1.6H0V100.4c34.8,8.1,69.9,11.9,104.8,5.5,47.7-8.8,91.8-36.3,139.8-43.3,100-14.7,193.5,60.7,293.9,70.6,73.5,7.3,146-21,219.7-25.8,130.6-8.6,261.1,56.4,389.9,30.2,62.9-12.8,121.1-46.7,183.1-64.3,99.1-28.2,203-13.7,305.1-9.7,97.8,3.8,201.4-4.2,283.8-63.6V659.7Z"/></g></g></svg>