<?xml version="1.0" encoding="utf-8"?>
<!-- Generator: Adobe Illustrator 25.0.0, SVG Export Plug-In . SVG Version: 6.00 Build 0)  -->
<svg version="1.1" id="Capa_1" xmlns="http://www.w3.org/2000/svg" xmlns:xlink="http://www.w3.org/1999/xlink" x="0px" y="0px"
	 viewBox="0 0 9839.7 850" style="enable-background:new 0 0 9839.7 850;" xml:space="preserve" preserveAspectRatio="none">
<style type="text/css">
	.st0{fill:#3D98D1;}
</style>
<g>
	<path class="st0" d="M9944.9,597.2c-35.3,8.9-70.4,13.6-105.2,14.6"/>
</g>
<g>
	<path class="st0" d="M0,536.2c-17.1,18.3-33.4,37.7-48.8,58.2"/>
</g>
<path class="st0" d="M9839.7,544.7V850H0V447.7C258.9,93.8,712.8,66.5,1094.3,163c406.7,102.9,813.7,306.9,1223,222.6
	c349.6-72,662.4-350,1015.7-382.3c506.7-46.4,962.2,417.8,1468.7,467.2c613.8,59.8,1193.9-495.4,1805.4-405.1
	c396.3,58.5,752.6,384.6,1151.5,391.8c425.3,7.7,832.8-350.6,1250.8-250.3C9296,275.7,9561,555.8,9839.7,544.7z"/>
</svg>
