<?xml version="1.0" encoding="utf-8"?>
<!-- Generator: Adobe Illustrator 25.0.0, SVG Export Plug-In . SVG Version: 6.00 Build 0)  -->
<svg version="1.1" id="Capa_1" xmlns="http://www.w3.org/2000/svg" xmlns:xlink="http://www.w3.org/1999/xlink" x="0px" y="0px"
	 viewBox="0 0 1387 633.8" style="enable-background:new 0 0 1387 633.8;" xml:space="preserve" preserveAspectRatio="none">
<style type="text/css">
	.st0{fill:#3D98D1;}
	.st1{fill:none;stroke:#176F87;stroke-miterlimit:10;}
</style>
<g id="Capa_2_1_">
	<g id="Capa_2-2">
		<path class="st0" d="M1387,0.2v633c-46.5,3.4-93.8-6.8-136.2-29.9c-46-25-61.9-39.3-135.4-62.2c-46.1-12.5-94.7-1.3-140.8,10.7
			c-48.9,12.7-100.5,31.5-152.5,33.7c-5,0.2-10,0.8-14.9,1.7c-25.3,5-49.7,0.4-67.2-22.2c-15.3-19.7-13-45.1-7.1-72.1
			c7.9-35.8,22.2-74.6,10.8-107.3c-14.8-42.4-61.8-49.1-100.3-53.4c-55-6.1-118.8-30.2-134.5-93.1c-7.8-31.3-1.4-65.8-9.4-97
			c-9-35-34.9-60.4-62.1-77.5C312.3-14,138.6,43.9,0,4.5V0.2H1387z"/>
	</g>
	<rect x="1387" y="-16" class="st1" width="265.4" height="664"/>
</g>
</svg>
