<?xml version="1.0" encoding="utf-8"?>
<!-- Generator: Adobe Illustrator 25.0.0, SVG Export Plug-In . SVG Version: 6.00 Build 0)  -->
<svg version="1.1" id="Capa_1" xmlns="http://www.w3.org/2000/svg" xmlns:xlink="http://www.w3.org/1999/xlink" x="0px" y="0px"
	 viewBox="0 0 1927.6 730.9" style="enable-background:new 0 0 1927.6 730.9;" xml:space="preserve">
<style type="text/css">
	.st0{fill:#3386DA;}
</style>
<g id="Capa_2_1_">
	<g id="Capa_2-2">
		<path class="st0" d="M1927.6,659.8l-1.3,62.9c-35.1,4-70.6,5.4-105.6,1c-48-6.1-92.1-22.9-140.3-28
			c-100.6-10.6-195.7,31.2-297.1,34.9c-74.2,2.7-146.9-15.2-221.1-19.6c-131.5-7.7-263.8,27.3-393.3,9.4
			c-63.3-8.7-121.5-29.6-183.8-41.1c-99.6-18.4-204.5-12.2-307.4-12c-25.4,0.1-51.1-0.4-76.7-1.6H0V100.4
			c34.8,8.1,69.9,11.9,104.8,5.5c47.7-8.8,91.8-36.3,139.8-43.3c100-14.7,193.5,60.7,293.9,70.6c73.5,7.3,146-21,219.7-25.8
			c130.6-8.6,261.1,56.4,389.9,30.2c62.9-12.8,121.1-46.7,183.1-64.3c99.1-28.2,203-13.7,305.1-9.7c97.8,3.8,201.4-4.2,283.8-63.6
			v659.7L1927.6,659.8z"/>
	</g>
</g>
</svg>
